<svg width="24" height="25" viewBox="0 0 24 25" fill="none" xmlns="http://www.w3.org/2000/svg">
<path d="M20.4853 16.3164C19.1783 15.0095 17.6226 14.0419 15.9253 13.4562C17.7432 12.2041 18.9375 10.1087 18.9375 7.73926C18.9375 3.91393 15.8253 0.801758 12 0.801758C8.17467 0.801758 5.0625 3.91393 5.0625 7.73926C5.0625 10.1087 6.25683 12.2041 8.07478 13.4562C6.37744 14.0419 4.82175 15.0095 3.51473 16.3164C1.24823 18.583 0 21.5964 0 24.8018H1.875C1.875 19.2188 6.41705 14.6768 12 14.6768C17.583 14.6768 22.125 19.2188 22.125 24.8018H24C24 21.5964 22.7518 18.583 20.4853 16.3164ZM12 12.8018C9.20855 12.8018 6.9375 10.5308 6.9375 7.73926C6.9375 4.94776 9.20855 2.67676 12 2.67676C14.7915 2.67676 17.0625 4.94776 17.0625 7.73926C17.0625 10.5308 14.7915 12.8018 12 12.8018Z" fill="#252D35"/>
</svg>
